<svg width="42.569px" height="42.569px" viewBox="0 -5.7 42.569 42.569" xmlns="http://www.w3.org/2000/svg">
<g id="Beach_5" transform="translate(-152.331 -185.332)">
<path id="Path_28" data-name="Path 28" d="M185.5,196.7a6.121,6.121,0,0,1-2.9-4.1c1.6-.1,3.8,0,4.8.7a1.02,1.02,0,0,1,.5.8,1.063,1.063,0,0,0,1,.9h.1a1.172,1.172,0,0,0,.9-1.1,2.851,2.851,0,0,0-1.3-2.2c-1.5-1.2-4-1.2-5.7-1.2a6.469,6.469,0,0,1,2.5-2.7,2.178,2.178,0,0,1,2.3-.2,1.03,1.03,0,1,0,1-1.8,4.419,4.419,0,0,0-4.3.2,8.8,8.8,0,0,0-3.3,3.6,11.493,11.493,0,0,0-9.1-3.4.9.9,0,0,0-.9,1.1.945.945,0,0,0,1.1.9,9.4,9.4,0,0,1,7,2.2,12.48,12.48,0,0,0-8.4,2.7.992.992,0,0,0,1.3,1.5,10.077,10.077,0,0,1,6.3-2.2,5.463,5.463,0,0,0-2,2.9,4.127,4.127,0,0,0,.8,3.5.909.909,0,0,0,.8.4,1.422,1.422,0,0,0,.6-.2,1.075,1.075,0,0,0,.2-1.4,2.113,2.113,0,0,1-.5-1.8,5.447,5.447,0,0,1,2.5-2.7,8.174,8.174,0,0,0,3.8,5.2c2.3,1.3,8.3,5.6,8.3,8.9a1,1,0,0,0,2,0C194.9,202.3,186.5,197.3,185.5,196.7Z" style="fill: rgb(255, 255, 255);"></path>
<path id="Path_29" data-name="Path 29" d="M175.4,207.8l-2.8,3.3H168v-9.3h9.1L167,196.2l-9.1,5.6h8.2v9.3h-2c-.2,0-.3,0-.4.1h0l-4,2a.883.883,0,0,0-.4,1.3,1.149,1.149,0,0,0,.9.6.6.6,0,0,0,.4-.1l2.5-1.3v1.8a1,1,0,0,0,2,0v-2.4h1v2.4a1,1,0,0,0,2,0v-2.4h4v2.4a1,1,0,0,0,2,0v-3l2.9-3.4a.966.966,0,0,0-.1-1.4A1.064,1.064,0,0,0,175.4,207.8Z" style="fill: rgb(255, 255, 255);"></path>
<path id="Path_30" data-name="Path 30" d="M163.2,205.7c.4.1.7.1,1,.2a.982.982,0,1,0,.5-1.9c-.4-.1-.8-.2-1.3-.3a8.454,8.454,0,0,0-4.6.8c-1.7.7-2.9,1.2-4.9-.2a1.012,1.012,0,0,0-1.1,1.7,6.115,6.115,0,0,0,3.5,1.2,8.9,8.9,0,0,0,3.3-.8A7.487,7.487,0,0,1,163.2,205.7Z" style="fill: rgb(255, 255, 255);"></path>
<path id="Path_31" data-name="Path 31" d="M190.1,204.8c-2.9,1.9-4.5,1.4-6.8.7-.7-.2-1.5-.4-2.3-.6-3.5-.9-4.3-.7-5.7-.2a8.725,8.725,0,0,1-3.1.8,5.862,5.862,0,0,1-2.3-.1,1.02,1.02,0,0,0-.4,2,7.587,7.587,0,0,0,3,.1,12.6,12.6,0,0,0,3.6-1c.9-.4,1.3-.5,4.5.3.8.2,1.5.4,2.2.6a10.966,10.966,0,0,0,3.6.7,8.755,8.755,0,0,0,4.8-1.6.984.984,0,0,0,.3-1.4A1.076,1.076,0,0,0,190.1,204.8Z" style="fill: rgb(255, 255, 255);"></path>
</g>
</svg>